<?xml version="1.0" encoding="UTF-8"?>
<svg xmlns="http://www.w3.org/2000/svg" viewBox="0 0 1785 753" width="1785" height="753" fill="none">
  <g data-period="2026-02">
    <rect x="12" y="696" width="50" height="50" rx="4" fill="#e6e6e6"/>
    <rect x="7" y="691" width="50" height="50" rx="3" fill="#b8b8b8"/>
    <path d="M13 697H51" stroke="#cecece" stroke-width="3" stroke-linecap="round"/>
    <rect x="69" y="696" width="50" height="50" rx="4" fill="#e6e6e6"/>
    <rect x="64" y="691" width="50" height="50" rx="3" fill="#b8b8b8"/>
    <path d="M70 697H108" stroke="#cecece" stroke-width="3" stroke-linecap="round"/>
    <rect x="12" y="639" width="50" height="50" rx="4" fill="#e6e6e6"/>
    <rect x="7" y="634" width="50" height="50" rx="3" fill="#2a7ae2"/>
    <path d="M13 640H51" stroke="#4c91ea" stroke-width="3" stroke-linecap="round"/>
    <rect x="69" y="639" width="50" height="50" rx="4" fill="#e6e6e6"/>
    <rect x="64" y="634" width="50" height="50" rx="3" fill="#2a7ae2"/>
    <path d="M70 640H108" stroke="#4c91ea" stroke-width="3" stroke-linecap="round"/>
  </g>
  <g data-period="2026-03">
    <rect x="127" y="696" width="50" height="50" rx="4" fill="#e6e6e6"/>
    <rect x="122" y="691" width="50" height="50" rx="3" fill="#b8b8b8"/>
    <path d="M128 697H166" stroke="#cecece" stroke-width="3" stroke-linecap="round"/>
    <rect x="184" y="696" width="50" height="50" rx="4" fill="#e6e6e6"/>
    <rect x="179" y="691" width="50" height="50" rx="3" fill="#2a7ae2"/>
    <path d="M185 697H223" stroke="#4c91ea" stroke-width="3" stroke-linecap="round"/>
    <rect x="241" y="696" width="50" height="50" rx="4" fill="#e6e6e6"/>
    <rect x="236" y="691" width="50" height="50" rx="3" fill="#2a7ae2"/>
    <path d="M242 697H280" stroke="#4c91ea" stroke-width="3" stroke-linecap="round"/>
    <rect x="155.5" y="639" width="50" height="50" rx="4" fill="#e6e6e6"/>
    <rect x="150.5" y="634" width="50" height="50" rx="3" fill="#7b2cbf"/>
    <path d="M156.5 640H194.5" stroke="#9149cc" stroke-width="3" stroke-linecap="round"/>
    <rect x="212.5" y="639" width="50" height="50" rx="4" fill="#e6e6e6"/>
    <rect x="207.5" y="634" width="50" height="50" rx="3" fill="#7b2cbf"/>
    <path d="M213.5 640H251.5" stroke="#9149cc" stroke-width="3" stroke-linecap="round"/>
  </g>
  <g data-period="2026-04">
    <rect x="299" y="696" width="50" height="50" rx="4" fill="#e6e6e6"/>
    <rect x="294" y="691" width="50" height="50" rx="3" fill="#2a7ae2"/>
    <path d="M300 697H338" stroke="#4c91ea" stroke-width="3" stroke-linecap="round"/>
    <rect x="356" y="696" width="50" height="50" rx="4" fill="#e6e6e6"/>
    <rect x="351" y="691" width="50" height="50" rx="3" fill="#7b2cbf"/>
    <path d="M357 697H395" stroke="#9149cc" stroke-width="3" stroke-linecap="round"/>
    <rect x="413" y="696" width="50" height="50" rx="4" fill="#e6e6e6"/>
    <rect x="408" y="691" width="50" height="50" rx="3" fill="#7b2cbf"/>
    <path d="M414 697H452" stroke="#9149cc" stroke-width="3" stroke-linecap="round"/>
    <rect x="299" y="639" width="50" height="50" rx="4" fill="#e6e6e6"/>
    <rect x="294" y="634" width="50" height="50" rx="3" fill="#7b2cbf"/>
    <path d="M300 640H338" stroke="#9149cc" stroke-width="3" stroke-linecap="round"/>
    <rect x="356" y="639" width="50" height="50" rx="4" fill="#e6e6e6"/>
    <rect x="351" y="634" width="50" height="50" rx="3" fill="#7b2cbf"/>
    <path d="M357 640H395" stroke="#9149cc" stroke-width="3" stroke-linecap="round"/>
    <rect x="413" y="639" width="50" height="50" rx="4" fill="#e6e6e6"/>
    <rect x="408" y="634" width="50" height="50" rx="3" fill="#7b2cbf"/>
    <path d="M414 640H452" stroke="#9149cc" stroke-width="3" stroke-linecap="round"/>
    <rect x="356" y="582" width="50" height="50" rx="4" fill="#e6e6e6"/>
    <rect x="351" y="577" width="50" height="50" rx="3" fill="#7b2cbf"/>
    <path d="M357 583H395" stroke="#9149cc" stroke-width="3" stroke-linecap="round"/>
  </g>
  <g data-period="2026-05">
    <rect x="471" y="696" width="50" height="50" rx="4" fill="#e6e6e6"/>
    <rect x="466" y="691" width="50" height="50" rx="3" fill="#2a7ae2"/>
    <path d="M472 697H510" stroke="#4c91ea" stroke-width="3" stroke-linecap="round"/>
    <rect x="528" y="696" width="50" height="50" rx="4" fill="#e6e6e6"/>
    <rect x="523" y="691" width="50" height="50" rx="3" fill="#2a7ae2"/>
    <path d="M529 697H567" stroke="#4c91ea" stroke-width="3" stroke-linecap="round"/>
    <rect x="585" y="696" width="50" height="50" rx="4" fill="#e6e6e6"/>
    <rect x="580" y="691" width="50" height="50" rx="3" fill="#2a7ae2"/>
    <path d="M586 697H624" stroke="#4c91ea" stroke-width="3" stroke-linecap="round"/>
    <rect x="642" y="696" width="50" height="50" rx="4" fill="#e6e6e6"/>
    <rect x="637" y="691" width="50" height="50" rx="3" fill="#2a7ae2"/>
    <path d="M643 697H681" stroke="#4c91ea" stroke-width="3" stroke-linecap="round"/>
    <rect x="699" y="696" width="50" height="50" rx="4" fill="#e6e6e6"/>
    <rect x="694" y="691" width="50" height="50" rx="3" fill="#2a7ae2"/>
    <path d="M700 697H738" stroke="#4c91ea" stroke-width="3" stroke-linecap="round"/>
    <rect x="756" y="696" width="50" height="50" rx="4" fill="#e6e6e6"/>
    <rect x="751" y="691" width="50" height="50" rx="3" fill="#2a7ae2"/>
    <path d="M757 697H795" stroke="#4c91ea" stroke-width="3" stroke-linecap="round"/>
    <rect x="471" y="639" width="50" height="50" rx="4" fill="#e6e6e6"/>
    <rect x="466" y="634" width="50" height="50" rx="3" fill="#2a7ae2"/>
    <path d="M472 640H510" stroke="#4c91ea" stroke-width="3" stroke-linecap="round"/>
    <rect x="528" y="639" width="50" height="50" rx="4" fill="#e6e6e6"/>
    <rect x="523" y="634" width="50" height="50" rx="3" fill="#2a7ae2"/>
    <path d="M529 640H567" stroke="#4c91ea" stroke-width="3" stroke-linecap="round"/>
    <rect x="585" y="639" width="50" height="50" rx="4" fill="#e6e6e6"/>
    <rect x="580" y="634" width="50" height="50" rx="3" fill="#7b2cbf"/>
    <path d="M586 640H624" stroke="#9149cc" stroke-width="3" stroke-linecap="round"/>
    <rect x="642" y="639" width="50" height="50" rx="4" fill="#e6e6e6"/>
    <rect x="637" y="634" width="50" height="50" rx="3" fill="#7b2cbf"/>
    <path d="M643 640H681" stroke="#9149cc" stroke-width="3" stroke-linecap="round"/>
    <rect x="699" y="639" width="50" height="50" rx="4" fill="#e6e6e6"/>
    <rect x="694" y="634" width="50" height="50" rx="3" fill="#7b2cbf"/>
    <path d="M700 640H738" stroke="#9149cc" stroke-width="3" stroke-linecap="round"/>
    <rect x="756" y="639" width="50" height="50" rx="4" fill="#e6e6e6"/>
    <rect x="751" y="634" width="50" height="50" rx="3" fill="#7b2cbf"/>
    <path d="M757 640H795" stroke="#9149cc" stroke-width="3" stroke-linecap="round"/>
    <rect x="471" y="582" width="50" height="50" rx="4" fill="#e6e6e6"/>
    <rect x="466" y="577" width="50" height="50" rx="3" fill="#7b2cbf"/>
    <path d="M472 583H510" stroke="#9149cc" stroke-width="3" stroke-linecap="round"/>
    <rect x="528" y="582" width="50" height="50" rx="4" fill="#e6e6e6"/>
    <rect x="523" y="577" width="50" height="50" rx="3" fill="#7b2cbf"/>
    <path d="M529 583H567" stroke="#9149cc" stroke-width="3" stroke-linecap="round"/>
    <rect x="585" y="582" width="50" height="50" rx="4" fill="#e6e6e6"/>
    <rect x="580" y="577" width="50" height="50" rx="3" fill="#7b2cbf"/>
    <path d="M586 583H624" stroke="#9149cc" stroke-width="3" stroke-linecap="round"/>
    <rect x="642" y="582" width="50" height="50" rx="4" fill="#e6e6e6"/>
    <rect x="637" y="577" width="50" height="50" rx="3" fill="#7b2cbf"/>
    <path d="M643 583H681" stroke="#9149cc" stroke-width="3" stroke-linecap="round"/>
    <rect x="699" y="582" width="50" height="50" rx="4" fill="#e6e6e6"/>
    <rect x="694" y="577" width="50" height="50" rx="3" fill="#7b2cbf"/>
    <path d="M700 583H738" stroke="#9149cc" stroke-width="3" stroke-linecap="round"/>
    <rect x="756" y="582" width="50" height="50" rx="4" fill="#e6e6e6"/>
    <rect x="751" y="577" width="50" height="50" rx="3" fill="#7b2cbf"/>
    <path d="M757 583H795" stroke="#9149cc" stroke-width="3" stroke-linecap="round"/>
    <rect x="499.5" y="525" width="50" height="50" rx="4" fill="#e6e6e6"/>
    <rect x="494.5" y="520" width="50" height="50" rx="3" fill="#7b2cbf"/>
    <path d="M500.5 526H538.5" stroke="#9149cc" stroke-width="3" stroke-linecap="round"/>
    <rect x="556.5" y="525" width="50" height="50" rx="4" fill="#e6e6e6"/>
    <rect x="551.5" y="520" width="50" height="50" rx="3" fill="#7b2cbf"/>
    <path d="M557.5 526H595.5" stroke="#9149cc" stroke-width="3" stroke-linecap="round"/>
    <rect x="613.5" y="525" width="50" height="50" rx="4" fill="#e6e6e6"/>
    <rect x="608.5" y="520" width="50" height="50" rx="3" fill="#7b2cbf"/>
    <path d="M614.5 526H652.5" stroke="#9149cc" stroke-width="3" stroke-linecap="round"/>
    <rect x="670.5" y="525" width="50" height="50" rx="4" fill="#e6e6e6"/>
    <rect x="665.5" y="520" width="50" height="50" rx="3" fill="#7b2cbf"/>
    <path d="M671.5 526H709.5" stroke="#9149cc" stroke-width="3" stroke-linecap="round"/>
    <rect x="727.5" y="525" width="50" height="50" rx="4" fill="#e6e6e6"/>
    <rect x="722.5" y="520" width="50" height="50" rx="3" fill="#7b2cbf"/>
    <path d="M728.5 526H766.5" stroke="#9149cc" stroke-width="3" stroke-linecap="round"/>
  </g>
  <g data-period="2026-06">
    <rect x="814" y="696" width="50" height="50" rx="4" fill="#e6e6e6"/>
    <rect x="809" y="691" width="50" height="50" rx="3" fill="#2a7ae2"/>
    <path d="M815 697H853" stroke="#4c91ea" stroke-width="3" stroke-linecap="round"/>
  </g>
  <g data-period="2026-07">
    <rect x="872" y="696" width="50" height="50" rx="4" fill="#e6e6e6"/>
    <rect x="867" y="691" width="50" height="50" rx="3" fill="#b8b8b8"/>
    <path d="M873 697H911" stroke="#cecece" stroke-width="3" stroke-linecap="round"/>
    <rect x="929" y="696" width="50" height="50" rx="4" fill="#e6e6e6"/>
    <rect x="924" y="691" width="50" height="50" rx="3" fill="#b8b8b8"/>
    <path d="M930 697H968" stroke="#cecece" stroke-width="3" stroke-linecap="round"/>
    <rect x="986" y="696" width="50" height="50" rx="4" fill="#e6e6e6"/>
    <rect x="981" y="691" width="50" height="50" rx="3" fill="#b8b8b8"/>
    <path d="M987 697H1025" stroke="#cecece" stroke-width="3" stroke-linecap="round"/>
    <rect x="1043" y="696" width="50" height="50" rx="4" fill="#e6e6e6"/>
    <rect x="1038" y="691" width="50" height="50" rx="3" fill="#b8b8b8"/>
    <path d="M1044 697H1082" stroke="#cecece" stroke-width="3" stroke-linecap="round"/>
    <rect x="1100" y="696" width="50" height="50" rx="4" fill="#e6e6e6"/>
    <rect x="1095" y="691" width="50" height="50" rx="3" fill="#b8b8b8"/>
    <path d="M1101 697H1139" stroke="#cecece" stroke-width="3" stroke-linecap="round"/>
    <rect x="1157" y="696" width="50" height="50" rx="4" fill="#e6e6e6"/>
    <rect x="1152" y="691" width="50" height="50" rx="3" fill="#b8b8b8"/>
    <path d="M1158 697H1196" stroke="#cecece" stroke-width="3" stroke-linecap="round"/>
    <rect x="1214" y="696" width="50" height="50" rx="4" fill="#e6e6e6"/>
    <rect x="1209" y="691" width="50" height="50" rx="3" fill="#2a7ae2"/>
    <path d="M1215 697H1253" stroke="#4c91ea" stroke-width="3" stroke-linecap="round"/>
    <rect x="1271" y="696" width="50" height="50" rx="4" fill="#e6e6e6"/>
    <rect x="1266" y="691" width="50" height="50" rx="3" fill="#2a7ae2"/>
    <path d="M1272 697H1310" stroke="#4c91ea" stroke-width="3" stroke-linecap="round"/>
    <rect x="872" y="639" width="50" height="50" rx="4" fill="#e6e6e6"/>
    <rect x="867" y="634" width="50" height="50" rx="3" fill="#2a7ae2"/>
    <path d="M873 640H911" stroke="#4c91ea" stroke-width="3" stroke-linecap="round"/>
    <rect x="929" y="639" width="50" height="50" rx="4" fill="#e6e6e6"/>
    <rect x="924" y="634" width="50" height="50" rx="3" fill="#2a7ae2"/>
    <path d="M930 640H968" stroke="#4c91ea" stroke-width="3" stroke-linecap="round"/>
    <rect x="986" y="639" width="50" height="50" rx="4" fill="#e6e6e6"/>
    <rect x="981" y="634" width="50" height="50" rx="3" fill="#2a7ae2"/>
    <path d="M987 640H1025" stroke="#4c91ea" stroke-width="3" stroke-linecap="round"/>
    <rect x="1043" y="639" width="50" height="50" rx="4" fill="#e6e6e6"/>
    <rect x="1038" y="634" width="50" height="50" rx="3" fill="#2a7ae2"/>
    <path d="M1044 640H1082" stroke="#4c91ea" stroke-width="3" stroke-linecap="round"/>
    <rect x="1100" y="639" width="50" height="50" rx="4" fill="#e6e6e6"/>
    <rect x="1095" y="634" width="50" height="50" rx="3" fill="#2a7ae2"/>
    <path d="M1101 640H1139" stroke="#4c91ea" stroke-width="3" stroke-linecap="round"/>
    <rect x="1157" y="639" width="50" height="50" rx="4" fill="#e6e6e6"/>
    <rect x="1152" y="634" width="50" height="50" rx="3" fill="#2a7ae2"/>
    <path d="M1158 640H1196" stroke="#4c91ea" stroke-width="3" stroke-linecap="round"/>
    <rect x="1214" y="639" width="50" height="50" rx="4" fill="#e6e6e6"/>
    <rect x="1209" y="634" width="50" height="50" rx="3" fill="#2a7ae2"/>
    <path d="M1215 640H1253" stroke="#4c91ea" stroke-width="3" stroke-linecap="round"/>
    <rect x="1271" y="639" width="50" height="50" rx="4" fill="#e6e6e6"/>
    <rect x="1266" y="634" width="50" height="50" rx="3" fill="#2a7ae2"/>
    <path d="M1272 640H1310" stroke="#4c91ea" stroke-width="3" stroke-linecap="round"/>
    <rect x="872" y="582" width="50" height="50" rx="4" fill="#e6e6e6"/>
    <rect x="867" y="577" width="50" height="50" rx="3" fill="#2a7ae2"/>
    <path d="M873 583H911" stroke="#4c91ea" stroke-width="3" stroke-linecap="round"/>
    <rect x="929" y="582" width="50" height="50" rx="4" fill="#e6e6e6"/>
    <rect x="924" y="577" width="50" height="50" rx="3" fill="#2a7ae2"/>
    <path d="M930 583H968" stroke="#4c91ea" stroke-width="3" stroke-linecap="round"/>
    <rect x="986" y="582" width="50" height="50" rx="4" fill="#e6e6e6"/>
    <rect x="981" y="577" width="50" height="50" rx="3" fill="#2a7ae2"/>
    <path d="M987 583H1025" stroke="#4c91ea" stroke-width="3" stroke-linecap="round"/>
    <rect x="1043" y="582" width="50" height="50" rx="4" fill="#e6e6e6"/>
    <rect x="1038" y="577" width="50" height="50" rx="3" fill="#2a7ae2"/>
    <path d="M1044 583H1082" stroke="#4c91ea" stroke-width="3" stroke-linecap="round"/>
    <rect x="1100" y="582" width="50" height="50" rx="4" fill="#e6e6e6"/>
    <rect x="1095" y="577" width="50" height="50" rx="3" fill="#2a7ae2"/>
    <path d="M1101 583H1139" stroke="#4c91ea" stroke-width="3" stroke-linecap="round"/>
    <rect x="1157" y="582" width="50" height="50" rx="4" fill="#e6e6e6"/>
    <rect x="1152" y="577" width="50" height="50" rx="3" fill="#2a7ae2"/>
    <path d="M1158 583H1196" stroke="#4c91ea" stroke-width="3" stroke-linecap="round"/>
    <rect x="1214" y="582" width="50" height="50" rx="4" fill="#e6e6e6"/>
    <rect x="1209" y="577" width="50" height="50" rx="3" fill="#2a7ae2"/>
    <path d="M1215 583H1253" stroke="#4c91ea" stroke-width="3" stroke-linecap="round"/>
    <rect x="1271" y="582" width="50" height="50" rx="4" fill="#e6e6e6"/>
    <rect x="1266" y="577" width="50" height="50" rx="3" fill="#2a7ae2"/>
    <path d="M1272 583H1310" stroke="#4c91ea" stroke-width="3" stroke-linecap="round"/>
    <rect x="872" y="525" width="50" height="50" rx="4" fill="#e6e6e6"/>
    <rect x="867" y="520" width="50" height="50" rx="3" fill="#2a7ae2"/>
    <path d="M873 526H911" stroke="#4c91ea" stroke-width="3" stroke-linecap="round"/>
    <rect x="929" y="525" width="50" height="50" rx="4" fill="#e6e6e6"/>
    <rect x="924" y="520" width="50" height="50" rx="3" fill="#2a7ae2"/>
    <path d="M930 526H968" stroke="#4c91ea" stroke-width="3" stroke-linecap="round"/>
    <rect x="986" y="525" width="50" height="50" rx="4" fill="#e6e6e6"/>
    <rect x="981" y="520" width="50" height="50" rx="3" fill="#2a7ae2"/>
    <path d="M987 526H1025" stroke="#4c91ea" stroke-width="3" stroke-linecap="round"/>
    <rect x="1043" y="525" width="50" height="50" rx="4" fill="#e6e6e6"/>
    <rect x="1038" y="520" width="50" height="50" rx="3" fill="#2a7ae2"/>
    <path d="M1044 526H1082" stroke="#4c91ea" stroke-width="3" stroke-linecap="round"/>
    <rect x="1100" y="525" width="50" height="50" rx="4" fill="#e6e6e6"/>
    <rect x="1095" y="520" width="50" height="50" rx="3" fill="#2a7ae2"/>
    <path d="M1101 526H1139" stroke="#4c91ea" stroke-width="3" stroke-linecap="round"/>
    <rect x="1157" y="525" width="50" height="50" rx="4" fill="#e6e6e6"/>
    <rect x="1152" y="520" width="50" height="50" rx="3" fill="#2a7ae2"/>
    <path d="M1158 526H1196" stroke="#4c91ea" stroke-width="3" stroke-linecap="round"/>
    <rect x="1214" y="525" width="50" height="50" rx="4" fill="#e6e6e6"/>
    <rect x="1209" y="520" width="50" height="50" rx="3" fill="#2a7ae2"/>
    <path d="M1215 526H1253" stroke="#4c91ea" stroke-width="3" stroke-linecap="round"/>
    <rect x="1271" y="525" width="50" height="50" rx="4" fill="#e6e6e6"/>
    <rect x="1266" y="520" width="50" height="50" rx="3" fill="#2a7ae2"/>
    <path d="M1272 526H1310" stroke="#4c91ea" stroke-width="3" stroke-linecap="round"/>
    <rect x="872" y="468" width="50" height="50" rx="4" fill="#e6e6e6"/>
    <rect x="867" y="463" width="50" height="50" rx="3" fill="#7b2cbf"/>
    <path d="M873 469H911" stroke="#9149cc" stroke-width="3" stroke-linecap="round"/>
    <rect x="929" y="468" width="50" height="50" rx="4" fill="#e6e6e6"/>
    <rect x="924" y="463" width="50" height="50" rx="3" fill="#7b2cbf"/>
    <path d="M930 469H968" stroke="#9149cc" stroke-width="3" stroke-linecap="round"/>
    <rect x="986" y="468" width="50" height="50" rx="4" fill="#e6e6e6"/>
    <rect x="981" y="463" width="50" height="50" rx="3" fill="#7b2cbf"/>
    <path d="M987 469H1025" stroke="#9149cc" stroke-width="3" stroke-linecap="round"/>
    <rect x="1043" y="468" width="50" height="50" rx="4" fill="#e6e6e6"/>
    <rect x="1038" y="463" width="50" height="50" rx="3" fill="#7b2cbf"/>
    <path d="M1044 469H1082" stroke="#9149cc" stroke-width="3" stroke-linecap="round"/>
    <rect x="1100" y="468" width="50" height="50" rx="4" fill="#e6e6e6"/>
    <rect x="1095" y="463" width="50" height="50" rx="3" fill="#7b2cbf"/>
    <path d="M1101 469H1139" stroke="#9149cc" stroke-width="3" stroke-linecap="round"/>
    <rect x="1157" y="468" width="50" height="50" rx="4" fill="#e6e6e6"/>
    <rect x="1152" y="463" width="50" height="50" rx="3" fill="#7b2cbf"/>
    <path d="M1158 469H1196" stroke="#9149cc" stroke-width="3" stroke-linecap="round"/>
    <rect x="1214" y="468" width="50" height="50" rx="4" fill="#e6e6e6"/>
    <rect x="1209" y="463" width="50" height="50" rx="3" fill="#7b2cbf"/>
    <path d="M1215 469H1253" stroke="#9149cc" stroke-width="3" stroke-linecap="round"/>
    <rect x="1271" y="468" width="50" height="50" rx="4" fill="#e6e6e6"/>
    <rect x="1266" y="463" width="50" height="50" rx="3" fill="#7b2cbf"/>
    <path d="M1272 469H1310" stroke="#9149cc" stroke-width="3" stroke-linecap="round"/>
    <rect x="872" y="411" width="50" height="50" rx="4" fill="#e6e6e6"/>
    <rect x="867" y="406" width="50" height="50" rx="3" fill="#7b2cbf"/>
    <path d="M873 412H911" stroke="#9149cc" stroke-width="3" stroke-linecap="round"/>
    <rect x="929" y="411" width="50" height="50" rx="4" fill="#e6e6e6"/>
    <rect x="924" y="406" width="50" height="50" rx="3" fill="#7b2cbf"/>
    <path d="M930 412H968" stroke="#9149cc" stroke-width="3" stroke-linecap="round"/>
    <rect x="986" y="411" width="50" height="50" rx="4" fill="#e6e6e6"/>
    <rect x="981" y="406" width="50" height="50" rx="3" fill="#7b2cbf"/>
    <path d="M987 412H1025" stroke="#9149cc" stroke-width="3" stroke-linecap="round"/>
    <rect x="1043" y="411" width="50" height="50" rx="4" fill="#e6e6e6"/>
    <rect x="1038" y="406" width="50" height="50" rx="3" fill="#7b2cbf"/>
    <path d="M1044 412H1082" stroke="#9149cc" stroke-width="3" stroke-linecap="round"/>
    <rect x="1100" y="411" width="50" height="50" rx="4" fill="#e6e6e6"/>
    <rect x="1095" y="406" width="50" height="50" rx="3" fill="#7b2cbf"/>
    <path d="M1101 412H1139" stroke="#9149cc" stroke-width="3" stroke-linecap="round"/>
    <rect x="1157" y="411" width="50" height="50" rx="4" fill="#e6e6e6"/>
    <rect x="1152" y="406" width="50" height="50" rx="3" fill="#7b2cbf"/>
    <path d="M1158 412H1196" stroke="#9149cc" stroke-width="3" stroke-linecap="round"/>
    <rect x="1214" y="411" width="50" height="50" rx="4" fill="#e6e6e6"/>
    <rect x="1209" y="406" width="50" height="50" rx="3" fill="#7b2cbf"/>
    <path d="M1215 412H1253" stroke="#9149cc" stroke-width="3" stroke-linecap="round"/>
    <rect x="1271" y="411" width="50" height="50" rx="4" fill="#e6e6e6"/>
    <rect x="1266" y="406" width="50" height="50" rx="3" fill="#7b2cbf"/>
    <path d="M1272 412H1310" stroke="#9149cc" stroke-width="3" stroke-linecap="round"/>
    <rect x="872" y="354" width="50" height="50" rx="4" fill="#e6e6e6"/>
    <rect x="867" y="349" width="50" height="50" rx="3" fill="#7b2cbf"/>
    <path d="M873 355H911" stroke="#9149cc" stroke-width="3" stroke-linecap="round"/>
    <rect x="929" y="354" width="50" height="50" rx="4" fill="#e6e6e6"/>
    <rect x="924" y="349" width="50" height="50" rx="3" fill="#7b2cbf"/>
    <path d="M930 355H968" stroke="#9149cc" stroke-width="3" stroke-linecap="round"/>
    <rect x="986" y="354" width="50" height="50" rx="4" fill="#e6e6e6"/>
    <rect x="981" y="349" width="50" height="50" rx="3" fill="#7b2cbf"/>
    <path d="M987 355H1025" stroke="#9149cc" stroke-width="3" stroke-linecap="round"/>
    <rect x="1043" y="354" width="50" height="50" rx="4" fill="#e6e6e6"/>
    <rect x="1038" y="349" width="50" height="50" rx="3" fill="#7b2cbf"/>
    <path d="M1044 355H1082" stroke="#9149cc" stroke-width="3" stroke-linecap="round"/>
    <rect x="1100" y="354" width="50" height="50" rx="4" fill="#e6e6e6"/>
    <rect x="1095" y="349" width="50" height="50" rx="3" fill="#7b2cbf"/>
    <path d="M1101 355H1139" stroke="#9149cc" stroke-width="3" stroke-linecap="round"/>
    <rect x="1157" y="354" width="50" height="50" rx="4" fill="#e6e6e6"/>
    <rect x="1152" y="349" width="50" height="50" rx="3" fill="#7b2cbf"/>
    <path d="M1158 355H1196" stroke="#9149cc" stroke-width="3" stroke-linecap="round"/>
    <rect x="1214" y="354" width="50" height="50" rx="4" fill="#e6e6e6"/>
    <rect x="1209" y="349" width="50" height="50" rx="3" fill="#7b2cbf"/>
    <path d="M1215 355H1253" stroke="#9149cc" stroke-width="3" stroke-linecap="round"/>
    <rect x="1271" y="354" width="50" height="50" rx="4" fill="#e6e6e6"/>
    <rect x="1266" y="349" width="50" height="50" rx="3" fill="#7b2cbf"/>
    <path d="M1272 355H1310" stroke="#9149cc" stroke-width="3" stroke-linecap="round"/>
  </g>
  <g data-period="2026-08">
    <rect x="1329" y="696" width="50" height="50" rx="4" fill="#e6e6e6"/>
    <rect x="1324" y="691" width="50" height="50" rx="3" fill="#b8b8b8"/>
    <path d="M1330 697H1368" stroke="#cecece" stroke-width="3" stroke-linecap="round"/>
    <rect x="1386" y="696" width="50" height="50" rx="4" fill="#e6e6e6"/>
    <rect x="1381" y="691" width="50" height="50" rx="3" fill="#b8b8b8"/>
    <path d="M1387 697H1425" stroke="#cecece" stroke-width="3" stroke-linecap="round"/>
    <rect x="1443" y="696" width="50" height="50" rx="4" fill="#e6e6e6"/>
    <rect x="1438" y="691" width="50" height="50" rx="3" fill="#b8b8b8"/>
    <path d="M1444 697H1482" stroke="#cecece" stroke-width="3" stroke-linecap="round"/>
    <rect x="1500" y="696" width="50" height="50" rx="4" fill="#e6e6e6"/>
    <rect x="1495" y="691" width="50" height="50" rx="3" fill="#b8b8b8"/>
    <path d="M1501 697H1539" stroke="#cecece" stroke-width="3" stroke-linecap="round"/>
    <rect x="1557" y="696" width="50" height="50" rx="4" fill="#e6e6e6"/>
    <rect x="1552" y="691" width="50" height="50" rx="3" fill="#b8b8b8"/>
    <path d="M1558 697H1596" stroke="#cecece" stroke-width="3" stroke-linecap="round"/>
    <rect x="1614" y="696" width="50" height="50" rx="4" fill="#e6e6e6"/>
    <rect x="1609" y="691" width="50" height="50" rx="3" fill="#b8b8b8"/>
    <path d="M1615 697H1653" stroke="#cecece" stroke-width="3" stroke-linecap="round"/>
    <rect x="1671" y="696" width="50" height="50" rx="4" fill="#e6e6e6"/>
    <rect x="1666" y="691" width="50" height="50" rx="3" fill="#b8b8b8"/>
    <path d="M1672 697H1710" stroke="#cecece" stroke-width="3" stroke-linecap="round"/>
    <rect x="1728" y="696" width="50" height="50" rx="4" fill="#e6e6e6"/>
    <rect x="1723" y="691" width="50" height="50" rx="3" fill="#b8b8b8"/>
    <path d="M1729 697H1767" stroke="#cecece" stroke-width="3" stroke-linecap="round"/>
    <rect x="1329" y="639" width="50" height="50" rx="4" fill="#e6e6e6"/>
    <rect x="1324" y="634" width="50" height="50" rx="3" fill="#b8b8b8"/>
    <path d="M1330 640H1368" stroke="#cecece" stroke-width="3" stroke-linecap="round"/>
    <rect x="1386" y="639" width="50" height="50" rx="4" fill="#e6e6e6"/>
    <rect x="1381" y="634" width="50" height="50" rx="3" fill="#b8b8b8"/>
    <path d="M1387 640H1425" stroke="#cecece" stroke-width="3" stroke-linecap="round"/>
    <rect x="1443" y="639" width="50" height="50" rx="4" fill="#e6e6e6"/>
    <rect x="1438" y="634" width="50" height="50" rx="3" fill="#b8b8b8"/>
    <path d="M1444 640H1482" stroke="#cecece" stroke-width="3" stroke-linecap="round"/>
    <rect x="1500" y="639" width="50" height="50" rx="4" fill="#e6e6e6"/>
    <rect x="1495" y="634" width="50" height="50" rx="3" fill="#b8b8b8"/>
    <path d="M1501 640H1539" stroke="#cecece" stroke-width="3" stroke-linecap="round"/>
    <rect x="1557" y="639" width="50" height="50" rx="4" fill="#e6e6e6"/>
    <rect x="1552" y="634" width="50" height="50" rx="3" fill="#b8b8b8"/>
    <path d="M1558 640H1596" stroke="#cecece" stroke-width="3" stroke-linecap="round"/>
    <rect x="1614" y="639" width="50" height="50" rx="4" fill="#e6e6e6"/>
    <rect x="1609" y="634" width="50" height="50" rx="3" fill="#b8b8b8"/>
    <path d="M1615 640H1653" stroke="#cecece" stroke-width="3" stroke-linecap="round"/>
    <rect x="1671" y="639" width="50" height="50" rx="4" fill="#e6e6e6"/>
    <rect x="1666" y="634" width="50" height="50" rx="3" fill="#b8b8b8"/>
    <path d="M1672 640H1710" stroke="#cecece" stroke-width="3" stroke-linecap="round"/>
    <rect x="1728" y="639" width="50" height="50" rx="4" fill="#e6e6e6"/>
    <rect x="1723" y="634" width="50" height="50" rx="3" fill="#b8b8b8"/>
    <path d="M1729 640H1767" stroke="#cecece" stroke-width="3" stroke-linecap="round"/>
    <rect x="1329" y="582" width="50" height="50" rx="4" fill="#e6e6e6"/>
    <rect x="1324" y="577" width="50" height="50" rx="3" fill="#b8b8b8"/>
    <path d="M1330 583H1368" stroke="#cecece" stroke-width="3" stroke-linecap="round"/>
    <rect x="1386" y="582" width="50" height="50" rx="4" fill="#e6e6e6"/>
    <rect x="1381" y="577" width="50" height="50" rx="3" fill="#b8b8b8"/>
    <path d="M1387 583H1425" stroke="#cecece" stroke-width="3" stroke-linecap="round"/>
    <rect x="1443" y="582" width="50" height="50" rx="4" fill="#e6e6e6"/>
    <rect x="1438" y="577" width="50" height="50" rx="3" fill="#b8b8b8"/>
    <path d="M1444 583H1482" stroke="#cecece" stroke-width="3" stroke-linecap="round"/>
    <rect x="1500" y="582" width="50" height="50" rx="4" fill="#e6e6e6"/>
    <rect x="1495" y="577" width="50" height="50" rx="3" fill="#b8b8b8"/>
    <path d="M1501 583H1539" stroke="#cecece" stroke-width="3" stroke-linecap="round"/>
    <rect x="1557" y="582" width="50" height="50" rx="4" fill="#e6e6e6"/>
    <rect x="1552" y="577" width="50" height="50" rx="3" fill="#b8b8b8"/>
    <path d="M1558 583H1596" stroke="#cecece" stroke-width="3" stroke-linecap="round"/>
    <rect x="1614" y="582" width="50" height="50" rx="4" fill="#e6e6e6"/>
    <rect x="1609" y="577" width="50" height="50" rx="3" fill="#b8b8b8"/>
    <path d="M1615 583H1653" stroke="#cecece" stroke-width="3" stroke-linecap="round"/>
    <rect x="1671" y="582" width="50" height="50" rx="4" fill="#e6e6e6"/>
    <rect x="1666" y="577" width="50" height="50" rx="3" fill="#b8b8b8"/>
    <path d="M1672 583H1710" stroke="#cecece" stroke-width="3" stroke-linecap="round"/>
    <rect x="1728" y="582" width="50" height="50" rx="4" fill="#e6e6e6"/>
    <rect x="1723" y="577" width="50" height="50" rx="3" fill="#b8b8b8"/>
    <path d="M1729 583H1767" stroke="#cecece" stroke-width="3" stroke-linecap="round"/>
    <rect x="1329" y="525" width="50" height="50" rx="4" fill="#e6e6e6"/>
    <rect x="1324" y="520" width="50" height="50" rx="3" fill="#b8b8b8"/>
    <path d="M1330 526H1368" stroke="#cecece" stroke-width="3" stroke-linecap="round"/>
    <rect x="1386" y="525" width="50" height="50" rx="4" fill="#e6e6e6"/>
    <rect x="1381" y="520" width="50" height="50" rx="3" fill="#b8b8b8"/>
    <path d="M1387 526H1425" stroke="#cecece" stroke-width="3" stroke-linecap="round"/>
    <rect x="1443" y="525" width="50" height="50" rx="4" fill="#e6e6e6"/>
    <rect x="1438" y="520" width="50" height="50" rx="3" fill="#b8b8b8"/>
    <path d="M1444 526H1482" stroke="#cecece" stroke-width="3" stroke-linecap="round"/>
    <rect x="1500" y="525" width="50" height="50" rx="4" fill="#e6e6e6"/>
    <rect x="1495" y="520" width="50" height="50" rx="3" fill="#b8b8b8"/>
    <path d="M1501 526H1539" stroke="#cecece" stroke-width="3" stroke-linecap="round"/>
    <rect x="1557" y="525" width="50" height="50" rx="4" fill="#e6e6e6"/>
    <rect x="1552" y="520" width="50" height="50" rx="3" fill="#2a7ae2"/>
    <path d="M1558 526H1596" stroke="#4c91ea" stroke-width="3" stroke-linecap="round"/>
    <rect x="1614" y="525" width="50" height="50" rx="4" fill="#e6e6e6"/>
    <rect x="1609" y="520" width="50" height="50" rx="3" fill="#2a7ae2"/>
    <path d="M1615 526H1653" stroke="#4c91ea" stroke-width="3" stroke-linecap="round"/>
    <rect x="1671" y="525" width="50" height="50" rx="4" fill="#e6e6e6"/>
    <rect x="1666" y="520" width="50" height="50" rx="3" fill="#2a7ae2"/>
    <path d="M1672 526H1710" stroke="#4c91ea" stroke-width="3" stroke-linecap="round"/>
    <rect x="1728" y="525" width="50" height="50" rx="4" fill="#e6e6e6"/>
    <rect x="1723" y="520" width="50" height="50" rx="3" fill="#2a7ae2"/>
    <path d="M1729 526H1767" stroke="#4c91ea" stroke-width="3" stroke-linecap="round"/>
    <rect x="1329" y="468" width="50" height="50" rx="4" fill="#e6e6e6"/>
    <rect x="1324" y="463" width="50" height="50" rx="3" fill="#2a7ae2"/>
    <path d="M1330 469H1368" stroke="#4c91ea" stroke-width="3" stroke-linecap="round"/>
    <rect x="1386" y="468" width="50" height="50" rx="4" fill="#e6e6e6"/>
    <rect x="1381" y="463" width="50" height="50" rx="3" fill="#2a7ae2"/>
    <path d="M1387 469H1425" stroke="#4c91ea" stroke-width="3" stroke-linecap="round"/>
    <rect x="1443" y="468" width="50" height="50" rx="4" fill="#e6e6e6"/>
    <rect x="1438" y="463" width="50" height="50" rx="3" fill="#2a7ae2"/>
    <path d="M1444 469H1482" stroke="#4c91ea" stroke-width="3" stroke-linecap="round"/>
    <rect x="1500" y="468" width="50" height="50" rx="4" fill="#e6e6e6"/>
    <rect x="1495" y="463" width="50" height="50" rx="3" fill="#2a7ae2"/>
    <path d="M1501 469H1539" stroke="#4c91ea" stroke-width="3" stroke-linecap="round"/>
    <rect x="1557" y="468" width="50" height="50" rx="4" fill="#e6e6e6"/>
    <rect x="1552" y="463" width="50" height="50" rx="3" fill="#2a7ae2"/>
    <path d="M1558 469H1596" stroke="#4c91ea" stroke-width="3" stroke-linecap="round"/>
    <rect x="1614" y="468" width="50" height="50" rx="4" fill="#e6e6e6"/>
    <rect x="1609" y="463" width="50" height="50" rx="3" fill="#2a7ae2"/>
    <path d="M1615 469H1653" stroke="#4c91ea" stroke-width="3" stroke-linecap="round"/>
    <rect x="1671" y="468" width="50" height="50" rx="4" fill="#e6e6e6"/>
    <rect x="1666" y="463" width="50" height="50" rx="3" fill="#2a7ae2"/>
    <path d="M1672 469H1710" stroke="#4c91ea" stroke-width="3" stroke-linecap="round"/>
    <rect x="1728" y="468" width="50" height="50" rx="4" fill="#e6e6e6"/>
    <rect x="1723" y="463" width="50" height="50" rx="3" fill="#2a7ae2"/>
    <path d="M1729 469H1767" stroke="#4c91ea" stroke-width="3" stroke-linecap="round"/>
    <rect x="1329" y="411" width="50" height="50" rx="4" fill="#e6e6e6"/>
    <rect x="1324" y="406" width="50" height="50" rx="3" fill="#2a7ae2"/>
    <path d="M1330 412H1368" stroke="#4c91ea" stroke-width="3" stroke-linecap="round"/>
    <rect x="1386" y="411" width="50" height="50" rx="4" fill="#e6e6e6"/>
    <rect x="1381" y="406" width="50" height="50" rx="3" fill="#2a7ae2"/>
    <path d="M1387 412H1425" stroke="#4c91ea" stroke-width="3" stroke-linecap="round"/>
    <rect x="1443" y="411" width="50" height="50" rx="4" fill="#e6e6e6"/>
    <rect x="1438" y="406" width="50" height="50" rx="3" fill="#2a7ae2"/>
    <path d="M1444 412H1482" stroke="#4c91ea" stroke-width="3" stroke-linecap="round"/>
    <rect x="1500" y="411" width="50" height="50" rx="4" fill="#e6e6e6"/>
    <rect x="1495" y="406" width="50" height="50" rx="3" fill="#2a7ae2"/>
    <path d="M1501 412H1539" stroke="#4c91ea" stroke-width="3" stroke-linecap="round"/>
    <rect x="1557" y="411" width="50" height="50" rx="4" fill="#e6e6e6"/>
    <rect x="1552" y="406" width="50" height="50" rx="3" fill="#2a7ae2"/>
    <path d="M1558 412H1596" stroke="#4c91ea" stroke-width="3" stroke-linecap="round"/>
    <rect x="1614" y="411" width="50" height="50" rx="4" fill="#e6e6e6"/>
    <rect x="1609" y="406" width="50" height="50" rx="3" fill="#2a7ae2"/>
    <path d="M1615 412H1653" stroke="#4c91ea" stroke-width="3" stroke-linecap="round"/>
    <rect x="1671" y="411" width="50" height="50" rx="4" fill="#e6e6e6"/>
    <rect x="1666" y="406" width="50" height="50" rx="3" fill="#2a7ae2"/>
    <path d="M1672 412H1710" stroke="#4c91ea" stroke-width="3" stroke-linecap="round"/>
    <rect x="1728" y="411" width="50" height="50" rx="4" fill="#e6e6e6"/>
    <rect x="1723" y="406" width="50" height="50" rx="3" fill="#2a7ae2"/>
    <path d="M1729 412H1767" stroke="#4c91ea" stroke-width="3" stroke-linecap="round"/>
    <rect x="1329" y="354" width="50" height="50" rx="4" fill="#e6e6e6"/>
    <rect x="1324" y="349" width="50" height="50" rx="3" fill="#2a7ae2"/>
    <path d="M1330 355H1368" stroke="#4c91ea" stroke-width="3" stroke-linecap="round"/>
    <rect x="1386" y="354" width="50" height="50" rx="4" fill="#e6e6e6"/>
    <rect x="1381" y="349" width="50" height="50" rx="3" fill="#2a7ae2"/>
    <path d="M1387 355H1425" stroke="#4c91ea" stroke-width="3" stroke-linecap="round"/>
    <rect x="1443" y="354" width="50" height="50" rx="4" fill="#e6e6e6"/>
    <rect x="1438" y="349" width="50" height="50" rx="3" fill="#2a7ae2"/>
    <path d="M1444 355H1482" stroke="#4c91ea" stroke-width="3" stroke-linecap="round"/>
    <rect x="1500" y="354" width="50" height="50" rx="4" fill="#e6e6e6"/>
    <rect x="1495" y="349" width="50" height="50" rx="3" fill="#2a7ae2"/>
    <path d="M1501 355H1539" stroke="#4c91ea" stroke-width="3" stroke-linecap="round"/>
    <rect x="1557" y="354" width="50" height="50" rx="4" fill="#e6e6e6"/>
    <rect x="1552" y="349" width="50" height="50" rx="3" fill="#2a7ae2"/>
    <path d="M1558 355H1596" stroke="#4c91ea" stroke-width="3" stroke-linecap="round"/>
    <rect x="1614" y="354" width="50" height="50" rx="4" fill="#e6e6e6"/>
    <rect x="1609" y="349" width="50" height="50" rx="3" fill="#2a7ae2"/>
    <path d="M1615 355H1653" stroke="#4c91ea" stroke-width="3" stroke-linecap="round"/>
    <rect x="1671" y="354" width="50" height="50" rx="4" fill="#e6e6e6"/>
    <rect x="1666" y="349" width="50" height="50" rx="3" fill="#2a7ae2"/>
    <path d="M1672 355H1710" stroke="#4c91ea" stroke-width="3" stroke-linecap="round"/>
    <rect x="1728" y="354" width="50" height="50" rx="4" fill="#e6e6e6"/>
    <rect x="1723" y="349" width="50" height="50" rx="3" fill="#2a7ae2"/>
    <path d="M1729 355H1767" stroke="#4c91ea" stroke-width="3" stroke-linecap="round"/>
    <rect x="1329" y="297" width="50" height="50" rx="4" fill="#e6e6e6"/>
    <rect x="1324" y="292" width="50" height="50" rx="3" fill="#2a7ae2"/>
    <path d="M1330 298H1368" stroke="#4c91ea" stroke-width="3" stroke-linecap="round"/>
    <rect x="1386" y="297" width="50" height="50" rx="4" fill="#e6e6e6"/>
    <rect x="1381" y="292" width="50" height="50" rx="3" fill="#2a7ae2"/>
    <path d="M1387 298H1425" stroke="#4c91ea" stroke-width="3" stroke-linecap="round"/>
    <rect x="1443" y="297" width="50" height="50" rx="4" fill="#e6e6e6"/>
    <rect x="1438" y="292" width="50" height="50" rx="3" fill="#2a7ae2"/>
    <path d="M1444 298H1482" stroke="#4c91ea" stroke-width="3" stroke-linecap="round"/>
    <rect x="1500" y="297" width="50" height="50" rx="4" fill="#e6e6e6"/>
    <rect x="1495" y="292" width="50" height="50" rx="3" fill="#2a7ae2"/>
    <path d="M1501 298H1539" stroke="#4c91ea" stroke-width="3" stroke-linecap="round"/>
    <rect x="1557" y="297" width="50" height="50" rx="4" fill="#e6e6e6"/>
    <rect x="1552" y="292" width="50" height="50" rx="3" fill="#2a7ae2"/>
    <path d="M1558 298H1596" stroke="#4c91ea" stroke-width="3" stroke-linecap="round"/>
    <rect x="1614" y="297" width="50" height="50" rx="4" fill="#e6e6e6"/>
    <rect x="1609" y="292" width="50" height="50" rx="3" fill="#2a7ae2"/>
    <path d="M1615 298H1653" stroke="#4c91ea" stroke-width="3" stroke-linecap="round"/>
    <rect x="1671" y="297" width="50" height="50" rx="4" fill="#e6e6e6"/>
    <rect x="1666" y="292" width="50" height="50" rx="3" fill="#2a7ae2"/>
    <path d="M1672 298H1710" stroke="#4c91ea" stroke-width="3" stroke-linecap="round"/>
    <rect x="1728" y="297" width="50" height="50" rx="4" fill="#e6e6e6"/>
    <rect x="1723" y="292" width="50" height="50" rx="3" fill="#2a7ae2"/>
    <path d="M1729 298H1767" stroke="#4c91ea" stroke-width="3" stroke-linecap="round"/>
    <rect x="1329" y="240" width="50" height="50" rx="4" fill="#e6e6e6"/>
    <rect x="1324" y="235" width="50" height="50" rx="3" fill="#2a7ae2"/>
    <path d="M1330 241H1368" stroke="#4c91ea" stroke-width="3" stroke-linecap="round"/>
    <rect x="1386" y="240" width="50" height="50" rx="4" fill="#e6e6e6"/>
    <rect x="1381" y="235" width="50" height="50" rx="3" fill="#2a7ae2"/>
    <path d="M1387 241H1425" stroke="#4c91ea" stroke-width="3" stroke-linecap="round"/>
    <rect x="1443" y="240" width="50" height="50" rx="4" fill="#e6e6e6"/>
    <rect x="1438" y="235" width="50" height="50" rx="3" fill="#2a7ae2"/>
    <path d="M1444 241H1482" stroke="#4c91ea" stroke-width="3" stroke-linecap="round"/>
    <rect x="1500" y="240" width="50" height="50" rx="4" fill="#e6e6e6"/>
    <rect x="1495" y="235" width="50" height="50" rx="3" fill="#2a7ae2"/>
    <path d="M1501 241H1539" stroke="#4c91ea" stroke-width="3" stroke-linecap="round"/>
    <rect x="1557" y="240" width="50" height="50" rx="4" fill="#e6e6e6"/>
    <rect x="1552" y="235" width="50" height="50" rx="3" fill="#2a7ae2"/>
    <path d="M1558 241H1596" stroke="#4c91ea" stroke-width="3" stroke-linecap="round"/>
    <rect x="1614" y="240" width="50" height="50" rx="4" fill="#e6e6e6"/>
    <rect x="1609" y="235" width="50" height="50" rx="3" fill="#2a7ae2"/>
    <path d="M1615 241H1653" stroke="#4c91ea" stroke-width="3" stroke-linecap="round"/>
    <rect x="1671" y="240" width="50" height="50" rx="4" fill="#e6e6e6"/>
    <rect x="1666" y="235" width="50" height="50" rx="3" fill="#2a7ae2"/>
    <path d="M1672 241H1710" stroke="#4c91ea" stroke-width="3" stroke-linecap="round"/>
    <rect x="1728" y="240" width="50" height="50" rx="4" fill="#e6e6e6"/>
    <rect x="1723" y="235" width="50" height="50" rx="3" fill="#2a7ae2"/>
    <path d="M1729 241H1767" stroke="#4c91ea" stroke-width="3" stroke-linecap="round"/>
    <rect x="1329" y="183" width="50" height="50" rx="4" fill="#e6e6e6"/>
    <rect x="1324" y="178" width="50" height="50" rx="3" fill="#2a7ae2"/>
    <path d="M1330 184H1368" stroke="#4c91ea" stroke-width="3" stroke-linecap="round"/>
    <rect x="1386" y="183" width="50" height="50" rx="4" fill="#e6e6e6"/>
    <rect x="1381" y="178" width="50" height="50" rx="3" fill="#2a7ae2"/>
    <path d="M1387 184H1425" stroke="#4c91ea" stroke-width="3" stroke-linecap="round"/>
    <rect x="1443" y="183" width="50" height="50" rx="4" fill="#e6e6e6"/>
    <rect x="1438" y="178" width="50" height="50" rx="3" fill="#2a7ae2"/>
    <path d="M1444 184H1482" stroke="#4c91ea" stroke-width="3" stroke-linecap="round"/>
    <rect x="1500" y="183" width="50" height="50" rx="4" fill="#e6e6e6"/>
    <rect x="1495" y="178" width="50" height="50" rx="3" fill="#2a7ae2"/>
    <path d="M1501 184H1539" stroke="#4c91ea" stroke-width="3" stroke-linecap="round"/>
    <rect x="1557" y="183" width="50" height="50" rx="4" fill="#e6e6e6"/>
    <rect x="1552" y="178" width="50" height="50" rx="3" fill="#2a7ae2"/>
    <path d="M1558 184H1596" stroke="#4c91ea" stroke-width="3" stroke-linecap="round"/>
    <rect x="1614" y="183" width="50" height="50" rx="4" fill="#e6e6e6"/>
    <rect x="1609" y="178" width="50" height="50" rx="3" fill="#2a7ae2"/>
    <path d="M1615 184H1653" stroke="#4c91ea" stroke-width="3" stroke-linecap="round"/>
    <rect x="1671" y="183" width="50" height="50" rx="4" fill="#e6e6e6"/>
    <rect x="1666" y="178" width="50" height="50" rx="3" fill="#2a7ae2"/>
    <path d="M1672 184H1710" stroke="#4c91ea" stroke-width="3" stroke-linecap="round"/>
    <rect x="1728" y="183" width="50" height="50" rx="4" fill="#e6e6e6"/>
    <rect x="1723" y="178" width="50" height="50" rx="3" fill="#7b2cbf"/>
    <path d="M1729 184H1767" stroke="#9149cc" stroke-width="3" stroke-linecap="round"/>
    <rect x="1329" y="126" width="50" height="50" rx="4" fill="#e6e6e6"/>
    <rect x="1324" y="121" width="50" height="50" rx="3" fill="#7b2cbf"/>
    <path d="M1330 127H1368" stroke="#9149cc" stroke-width="3" stroke-linecap="round"/>
    <rect x="1386" y="126" width="50" height="50" rx="4" fill="#e6e6e6"/>
    <rect x="1381" y="121" width="50" height="50" rx="3" fill="#7b2cbf"/>
    <path d="M1387 127H1425" stroke="#9149cc" stroke-width="3" stroke-linecap="round"/>
    <rect x="1443" y="126" width="50" height="50" rx="4" fill="#e6e6e6"/>
    <rect x="1438" y="121" width="50" height="50" rx="3" fill="#7b2cbf"/>
    <path d="M1444 127H1482" stroke="#9149cc" stroke-width="3" stroke-linecap="round"/>
    <rect x="1500" y="126" width="50" height="50" rx="4" fill="#e6e6e6"/>
    <rect x="1495" y="121" width="50" height="50" rx="3" fill="#7b2cbf"/>
    <path d="M1501 127H1539" stroke="#9149cc" stroke-width="3" stroke-linecap="round"/>
    <rect x="1557" y="126" width="50" height="50" rx="4" fill="#e6e6e6"/>
    <rect x="1552" y="121" width="50" height="50" rx="3" fill="#7b2cbf"/>
    <path d="M1558 127H1596" stroke="#9149cc" stroke-width="3" stroke-linecap="round"/>
    <rect x="1614" y="126" width="50" height="50" rx="4" fill="#e6e6e6"/>
    <rect x="1609" y="121" width="50" height="50" rx="3" fill="#7b2cbf"/>
    <path d="M1615 127H1653" stroke="#9149cc" stroke-width="3" stroke-linecap="round"/>
    <rect x="1671" y="126" width="50" height="50" rx="4" fill="#e6e6e6"/>
    <rect x="1666" y="121" width="50" height="50" rx="3" fill="#7b2cbf"/>
    <path d="M1672 127H1710" stroke="#9149cc" stroke-width="3" stroke-linecap="round"/>
    <rect x="1728" y="126" width="50" height="50" rx="4" fill="#e6e6e6"/>
    <rect x="1723" y="121" width="50" height="50" rx="3" fill="#7b2cbf"/>
    <path d="M1729 127H1767" stroke="#9149cc" stroke-width="3" stroke-linecap="round"/>
    <rect x="1329" y="69" width="50" height="50" rx="4" fill="#e6e6e6"/>
    <rect x="1324" y="64" width="50" height="50" rx="3" fill="#7b2cbf"/>
    <path d="M1330 70H1368" stroke="#9149cc" stroke-width="3" stroke-linecap="round"/>
    <rect x="1386" y="69" width="50" height="50" rx="4" fill="#e6e6e6"/>
    <rect x="1381" y="64" width="50" height="50" rx="3" fill="#7b2cbf"/>
    <path d="M1387 70H1425" stroke="#9149cc" stroke-width="3" stroke-linecap="round"/>
    <rect x="1443" y="69" width="50" height="50" rx="4" fill="#e6e6e6"/>
    <rect x="1438" y="64" width="50" height="50" rx="3" fill="#7b2cbf"/>
    <path d="M1444 70H1482" stroke="#9149cc" stroke-width="3" stroke-linecap="round"/>
    <rect x="1500" y="69" width="50" height="50" rx="4" fill="#e6e6e6"/>
    <rect x="1495" y="64" width="50" height="50" rx="3" fill="#7b2cbf"/>
    <path d="M1501 70H1539" stroke="#9149cc" stroke-width="3" stroke-linecap="round"/>
    <rect x="1557" y="69" width="50" height="50" rx="4" fill="#e6e6e6"/>
    <rect x="1552" y="64" width="50" height="50" rx="3" fill="#7b2cbf"/>
    <path d="M1558 70H1596" stroke="#9149cc" stroke-width="3" stroke-linecap="round"/>
    <rect x="1614" y="69" width="50" height="50" rx="4" fill="#e6e6e6"/>
    <rect x="1609" y="64" width="50" height="50" rx="3" fill="#7b2cbf"/>
    <path d="M1615 70H1653" stroke="#9149cc" stroke-width="3" stroke-linecap="round"/>
    <rect x="1671" y="69" width="50" height="50" rx="4" fill="#e6e6e6"/>
    <rect x="1666" y="64" width="50" height="50" rx="3" fill="#7b2cbf"/>
    <path d="M1672 70H1710" stroke="#9149cc" stroke-width="3" stroke-linecap="round"/>
    <rect x="1728" y="69" width="50" height="50" rx="4" fill="#e6e6e6"/>
    <rect x="1723" y="64" width="50" height="50" rx="3" fill="#7b2cbf"/>
    <path d="M1729 70H1767" stroke="#9149cc" stroke-width="3" stroke-linecap="round"/>
    <rect x="1500" y="12" width="50" height="50" rx="4" fill="#e6e6e6"/>
    <rect x="1495" y="7" width="50" height="50" rx="3" fill="#7b2cbf"/>
    <path d="M1501 13H1539" stroke="#9149cc" stroke-width="3" stroke-linecap="round"/>
    <rect x="1557" y="12" width="50" height="50" rx="4" fill="#e6e6e6"/>
    <rect x="1552" y="7" width="50" height="50" rx="3" fill="#7b2cbf"/>
    <path d="M1558 13H1596" stroke="#9149cc" stroke-width="3" stroke-linecap="round"/>
  </g>
</svg>
